{"title":"Life with Mikey (1993) 720p fiveofseven","uid":14756720,"size":1264888275,"categoryP":"video","categoryS":"hd___movies","magnet":"?xt=urn:btih:157400b27a14b87c3763b890385b6396d01343e4&amp;dn=Life+with+Mikey+%281993%29+720p+fiveofseven&amp;tr=udp%3A%2F%2Ftracker.leechers-paradise.org%3A6969&amp;tr=udp%3A%2F%2Fzer0day.ch%3A1337&amp;tr=udp%3A%2F%2Fopen.demonii.com%3A1337&amp;tr=udp%3A%2F%2Ftracker.coppersurfer.tk%3A6969&amp;tr=udp%3A%2F%2Fexodus.desync.com%3A6969","seeders":1,"leechers":0,"uploader":"fiveofseven","files":3,"time":1464823673,"description":"\nPLOT - Michael Chapman was once a child TV star. But when he grew up, \r\nhe couldn't get work. So he and his brother, Ed start their own \r\ntalent agency that specializes in child acts. They can't seem \r\nto find the next big thing and they have to deal with another \r\nagency who's not above bribery to get the kids to sign with them. \r\nOne day Michael meets a girl named Angie and she's a real spitfire. \r\nMichael thinks she could what they are looking for. \r\nProblem is that she has a big chip on her shoulder.\r\n\r\n\r\nINFO\r\n\r\nEncoder: fiveofseven\r\nSource: Blu-Ray\r\nRating: PG\r\nGenre: Comedy, Family\r\nSubtitles: English\r\nPoster: \r  https://yuq.me/users/25/564/H5jqhuIPBp.jpg \r\n\r\nGeneral\r\nComplete name                            : Life With Mikey 720p (fiveofseven).mp4\r\nFormat                                   : MPEG-4\r\nFormat profile                           : Base Media\r\nCodec ID                                 : isom\r\nFile size                                : 1.17 GiB\r\nDuration                                 : 1h 31mn\r\nOverall bit rate mode                    : Variable\r\nOverall bit rate                         : 1 832 Kbps\r\nEncoded date                             : UTC 2016-05-05 14:40:07\r\nTagged date                              : UTC 2016-05-05 15:00:08\r\nWriting application                      : My MP4Box GUI 0.6.0.6 &lt;http://my-mp4box-gui.zymichost.com&gt;\r\n\r\nVideo\r\nID                                       : 1\r\nFormat                                   : AVC\r\nFormat/Info                              : Advanced Video Codec\r\nFormat profile                           :   \r\nFormat settings, CABAC                   : Yes\r\nFormat settings, ReFrames                : 7 frames\r\nCodec ID                                 : avc1\r\nCodec ID/Info                            : Advanced Video Coding\r\nDuration                                 : 1h 31mn\r\nBit rate                                 : 1 700 Kbps\r\nMaximum bit rate                         : 5 551 Kbps\r\nWidth                                    : 1 280 pixels\r\nHeight                                   : 720 pixels\r\nDisplay aspect ratio                     : 16:9\r\nFrame rate mode                          : Constant\r\nFrame rate                               : 23.976 fps\r\nColor space                              : YUV\r\nChroma subsampling                       : 4:2:0\r\nBit depth                                : 8 bits\r\nScan type                                : Progressive\r\nBits/(Pixel*Frame)                       : 0.077\r\nStream size                              : 1.09 GiB (93%)\r\nTitle                                    : LWM 720p.mp4\r\nWriting library                          : x264 core 146 r2538 121396c\r\nLanguage                                 : English\r\nEncoded date                             : UTC 2016-05-05 14:20:55\r\nTagged date                              : UTC 2016-05-05 14:41:05\r\n\r\nAudio\r\nID                                       : 2\r\nFormat                                   : AAC\r\nFormat/Info                              : Advanced Audio Codec\r\nFormat profile                           : LC\r\nCodec ID                                 : 40\r\nDuration                                 : 1h 31mn\r\nBit rate mode                            : Variable\r\nBit rate                                 : 128 Kbps\r\nMaximum bit rate                         : 132 Kbps\r\nChannel count                            : 2 channels\r\nChannel positions                        : Front: L R\r\nSampling rate                            : 48.0 KHz\r\nCompression mode                         : Lossy\r\nStream size                              : 83.7 MiB (7%)\r\nTitle                                    : aac.mp4\r\nLanguage                                 : English\r\nEncoded date                             : UTC 2016-05-05 14:41:02\r\nTagged date                              : UTC 2016-05-05 14:41:05\r\n\r\n\r\nScreenshots - \r\n  \nhttps://yuq.me/users/25/564/cohItaEu2x.png \r\n  \nhttps://yuq.me/users/25/564/YNtW0uwBxa.png \r\n  \nhttps://yuq.me/users/25/564/Q5q2bgOnHA.png \r\n  \nhttps://yuq.me/users/25/564/JAzvF6DR0p.png \r\n \r\nsignature \r\n  \nhttps://yuq.me/users/25/564/aegRQCBILx.png","torrent":{"xt":"urn:btih:157400b27a14b87c3763b890385b6396d01343e4","amp;dn":"Life+with+Mikey+%281993%29+720p+fiveofseven","amp;tr":["udp%3A%2F%2Ftracker.leechers-paradise.org%3A6969","udp%3A%2F%2Fzer0day.ch%3A1337","udp%3A%2F%2Fopen.demonii.com%3A1337","udp%3A%2F%2Ftracker.coppersurfer.tk%3A6969","udp%3A%2F%2Fexodus.desync.com%3A6969"],"infoHash":"157400b27a14b87c3763b890385b6396d01343e4","infoHashBuffer":{"type":"Buffer","data":[21,116,0,178,122,20,184,124,55,99,184,144,56,91,99,150,208,19,67,228]},"announce":[],"urlList":[]}}